<!DOCTYPE svg PUBLIC "-//W3C//DTD SVG 1.1//EN" "http://www.w3.org/Graphics/SVG/1.1/DTD/svg11.dtd">
<!-- Uploaded to: SVG Repo, www.svgrepo.com, Transformed by: SVG Repo Mixer Tools -->
<svg fill="#92d35e" height="800px" width="800px" version="1.1" id="Layer_1" xmlns="http://www.w3.org/2000/svg" xmlns:xlink="http://www.w3.org/1999/xlink" viewBox="0 0 491.598 491.598" xml:space="preserve" stroke="#92d35e">
<g id="SVGRepo_bgCarrier" stroke-width="0"/>
<g id="SVGRepo_tracerCarrier" stroke-linecap="round" stroke-linejoin="round"/>
<g id="SVGRepo_iconCarrier"> <g transform="translate(0 -1)"> <g> <g> <path d="M245.76,410.651c45.246,0,81.92-36.674,81.92-81.92s-36.674-81.92-81.92-81.92c-45.246,0-81.92,36.674-81.92,81.92 S200.514,410.651,245.76,410.651z M245.76,287.772c22.625,0,40.96,18.335,40.96,40.96s-18.335,40.96-40.96,40.96 s-40.96-18.335-40.96-40.96S223.135,287.772,245.76,287.772z"/> <path d="M489.12,175.321c-0.041-0.077-0.084-0.152-0.125-0.228c-0.143-0.248-0.288-0.494-0.444-0.737 c-2.114-3.47-5.379-6.344-9.859-8.018L131.6,3.001c-13.583-6.392-29.2,3.519-29.2,18.531v69.226l-36.944-7.389 c-12.673-2.535-24.496,7.159-24.496,20.082v61.44H20.48c-11.311,0-20.48,9.169-20.48,20.48v286.72 c0,11.311,9.169,20.48,20.48,20.48h450.56c11.311,0,20.48-9.169,20.48-20.48V186.717 C491.844,182.82,491.093,178.847,489.12,175.321z M143.36,53.803l166.845,78.516L143.36,98.95V53.803z M81.92,128.433 l36.943,7.389c0,0,0,0,0,0l105.884,21.177l39.465,7.893H81.92V128.433z M450.56,451.611H40.96v-245.76h20.48h389.12V451.611z"/> <path d="M102.4,267.291c11.305,0,20.48-9.175,20.48-20.48s-9.175-20.48-20.48-20.48c-11.305,0-20.48,9.175-20.48,20.48 S91.095,267.291,102.4,267.291z"/> <path d="M389.12,267.291c11.305,0,20.48-9.175,20.48-20.48s-9.175-20.48-20.48-20.48c-11.305,0-20.48,9.175-20.48,20.48 S377.815,267.291,389.12,267.291z"/> <path d="M102.4,431.132c11.305,0,20.48-9.175,20.48-20.48c0-11.305-9.175-20.48-20.48-20.48c-11.305,0-20.48,9.175-20.48,20.48 C81.92,421.956,91.095,431.132,102.4,431.132z"/> <path d="M389.12,431.132c11.305,0,20.48-9.175,20.48-20.48c0-11.305-9.175-20.48-20.48-20.48c-11.305,0-20.48,9.175-20.48,20.48 C368.64,421.956,377.815,431.132,389.12,431.132z"/> </g> </g> </g> </g>
</svg>